<mxfile host="app.diagrams.net" modified="2023-01-08T08:14:39.763Z" agent="5.0 (X11)" version="20.8.3" etag="VOMiuJ5Do03glh-tvGCs" type="github">
  <diagram id="mEQxacOhPSq-yas3wnEj" name="PÃ¡gina-1">
    <mxGraphModel dx="1426" dy="814" grid="1" gridSize="10" guides="1" tooltips="1" connect="1" arrows="1" fold="1" page="1" pageScale="1" pageWidth="850" pageHeight="1100" math="0" shadow="0">
      <root>
        <mxCell id="0" />
        <mxCell id="1" parent="0" />
        <mxCell id="Yf9Wv-2FDHJYX4lhgytP-1" value="" style="rounded=1;whiteSpace=wrap;html=1;fillColor=#d5e8d4;strokeColor=#82b366;" vertex="1" parent="1">
          <mxGeometry x="50" y="190" width="540" height="350" as="geometry" />
        </mxCell>
        <mxCell id="Yf9Wv-2FDHJYX4lhgytP-2" value="Modelo" style="rounded=1;whiteSpace=wrap;html=1;fontSize=24;fillColor=#dae8fc;strokeColor=#6c8ebf;" vertex="1" parent="1">
          <mxGeometry x="90" y="240" width="150" height="80" as="geometry" />
        </mxCell>
        <mxCell id="Yf9Wv-2FDHJYX4lhgytP-3" value="Vista" style="rounded=1;whiteSpace=wrap;html=1;fontSize=24;fillColor=#dae8fc;strokeColor=#6c8ebf;" vertex="1" parent="1">
          <mxGeometry x="400" y="410" width="150" height="80" as="geometry" />
        </mxCell>
        <mxCell id="Yf9Wv-2FDHJYX4lhgytP-4" value="Controlador" style="rounded=1;whiteSpace=wrap;html=1;fontSize=24;fillColor=#dae8fc;strokeColor=#6c8ebf;" vertex="1" parent="1">
          <mxGeometry x="90" y="410" width="150" height="80" as="geometry" />
        </mxCell>
        <mxCell id="Yf9Wv-2FDHJYX4lhgytP-7" value="" style="shape=image;verticalLabelPosition=bottom;labelBackgroundColor=default;verticalAlign=top;aspect=fixed;imageAspect=0;image=https://download.logo.wine/logo/Django_(web_framework)/Django_(web_framework)-Logo.wine.png;" vertex="1" parent="1">
          <mxGeometry x="285.15" y="180" width="299.71" height="200" as="geometry" />
        </mxCell>
        <mxCell id="Yf9Wv-2FDHJYX4lhgytP-9" value="" style="rounded=1;whiteSpace=wrap;html=1;fontSize=24;fillColor=#e1d5e7;strokeColor=#9673a6;" vertex="1" parent="1">
          <mxGeometry x="1040" y="190" width="330" height="350" as="geometry" />
        </mxCell>
        <mxCell id="Yf9Wv-2FDHJYX4lhgytP-14" value="" style="endArrow=classic;html=1;rounded=0;strokeWidth=4;fontSize=24;entryX=0;entryY=0.5;entryDx=0;entryDy=0;exitX=1;exitY=0.5;exitDx=0;exitDy=0;" edge="1" parent="1" source="Yf9Wv-2FDHJYX4lhgytP-4" target="Yf9Wv-2FDHJYX4lhgytP-3">
          <mxGeometry width="50" height="50" relative="1" as="geometry">
            <mxPoint x="640" y="450" as="sourcePoint" />
            <mxPoint x="690" y="400" as="targetPoint" />
          </mxGeometry>
        </mxCell>
        <mxCell id="Yf9Wv-2FDHJYX4lhgytP-15" value="" style="endArrow=classic;html=1;rounded=0;strokeWidth=4;fontSize=24;entryX=0.5;entryY=1;entryDx=0;entryDy=0;" edge="1" parent="1" source="Yf9Wv-2FDHJYX4lhgytP-4" target="Yf9Wv-2FDHJYX4lhgytP-2">
          <mxGeometry width="50" height="50" relative="1" as="geometry">
            <mxPoint x="640" y="450" as="sourcePoint" />
            <mxPoint x="690" y="400" as="targetPoint" />
          </mxGeometry>
        </mxCell>
        <mxCell id="Yf9Wv-2FDHJYX4lhgytP-16" value="&lt;font style=&quot;font-size: 32px;&quot;&gt;Servidor&lt;/font&gt;" style="text;html=1;strokeColor=none;fillColor=none;align=center;verticalAlign=middle;whiteSpace=wrap;rounded=0;fontSize=24;fontStyle=1" vertex="1" parent="1">
          <mxGeometry x="290" y="130" width="60" height="30" as="geometry" />
        </mxCell>
        <mxCell id="Yf9Wv-2FDHJYX4lhgytP-18" value="Cliente" style="text;html=1;strokeColor=none;fillColor=none;align=center;verticalAlign=middle;whiteSpace=wrap;rounded=0;fontSize=30;fontStyle=1" vertex="1" parent="1">
          <mxGeometry x="1175" y="130" width="60" height="30" as="geometry" />
        </mxCell>
        <mxCell id="Yf9Wv-2FDHJYX4lhgytP-20" value="" style="endArrow=classic;html=1;rounded=0;strokeWidth=4;fontSize=30;entryX=0;entryY=0.75;entryDx=0;entryDy=0;startArrow=none;" edge="1" parent="1" source="Yf9Wv-2FDHJYX4lhgytP-3" target="Yf9Wv-2FDHJYX4lhgytP-9">
          <mxGeometry width="50" height="50" relative="1" as="geometry">
            <mxPoint x="640" y="450" as="sourcePoint" />
            <mxPoint x="690" y="400" as="targetPoint" />
          </mxGeometry>
        </mxCell>
        <mxCell id="Yf9Wv-2FDHJYX4lhgytP-21" value="" style="endArrow=classic;html=1;rounded=0;strokeWidth=4;fontSize=30;exitX=0.521;exitY=1.011;exitDx=0;exitDy=0;exitPerimeter=0;entryX=0.5;entryY=1;entryDx=0;entryDy=0;" edge="1" parent="1" source="Yf9Wv-2FDHJYX4lhgytP-9" target="Yf9Wv-2FDHJYX4lhgytP-4">
          <mxGeometry width="50" height="50" relative="1" as="geometry">
            <mxPoint x="640" y="450" as="sourcePoint" />
            <mxPoint x="160" y="650" as="targetPoint" />
            <Array as="points">
              <mxPoint x="1212" y="600" />
              <mxPoint x="165" y="600" />
            </Array>
          </mxGeometry>
        </mxCell>
        <mxCell id="Yf9Wv-2FDHJYX4lhgytP-8" value="Red" style="ellipse;shape=cloud;whiteSpace=wrap;html=1;fontSize=24;fillColor=#dae8fc;strokeColor=#6c8ebf;" vertex="1" parent="1">
          <mxGeometry x="670" y="400" width="230" height="240" as="geometry" />
        </mxCell>
        <mxCell id="Yf9Wv-2FDHJYX4lhgytP-23" value="" style="shape=image;verticalLabelPosition=bottom;labelBackgroundColor=default;verticalAlign=top;aspect=fixed;imageAspect=0;image=https://cdn-icons-png.flaticon.com/512/6358/6358845.png;" vertex="1" parent="1">
          <mxGeometry x="1100" y="300" width="210" height="210" as="geometry" />
        </mxCell>
        <mxCell id="Yf9Wv-2FDHJYX4lhgytP-24" value="Navegador web" style="text;html=1;strokeColor=none;fillColor=none;align=center;verticalAlign=middle;whiteSpace=wrap;rounded=0;fontSize=24;" vertex="1" parent="1">
          <mxGeometry x="1152.5" y="250" width="105" height="30" as="geometry" />
        </mxCell>
        <mxCell id="Yf9Wv-2FDHJYX4lhgytP-25" value="Consulta" style="text;html=1;strokeColor=none;fillColor=none;align=center;verticalAlign=middle;whiteSpace=wrap;rounded=0;fontSize=24;" vertex="1" parent="1">
          <mxGeometry x="950" y="550" width="60" height="30" as="geometry" />
        </mxCell>
        <mxCell id="Yf9Wv-2FDHJYX4lhgytP-26" value="Consulta" style="text;html=1;strokeColor=none;fillColor=none;align=center;verticalAlign=middle;whiteSpace=wrap;rounded=0;fontSize=24;" vertex="1" parent="1">
          <mxGeometry x="200" y="350" width="60" height="30" as="geometry" />
        </mxCell>
        <mxCell id="Yf9Wv-2FDHJYX4lhgytP-27" value="Respuesta" style="text;html=1;strokeColor=none;fillColor=none;align=center;verticalAlign=middle;whiteSpace=wrap;rounded=0;fontSize=24;" vertex="1" parent="1">
          <mxGeometry x="630" y="400" width="60" height="30" as="geometry" />
        </mxCell>
        <mxCell id="Yf9Wv-2FDHJYX4lhgytP-28" value="Renderiza" style="text;html=1;strokeColor=none;fillColor=none;align=center;verticalAlign=middle;whiteSpace=wrap;rounded=0;fontSize=24;" vertex="1" parent="1">
          <mxGeometry x="290" y="470" width="60" height="30" as="geometry" />
        </mxCell>
      </root>
    </mxGraphModel>
  </diagram>
</mxfile>
